<svg width="32" height="32" viewBox="0 0 32 32" fill="none" xmlns="http://www.w3.org/2000/svg">
<g clip-path="url(#clip0_362_9027)">
<path d="M27.3316 9.73095L27.1944 9.7011L27.1741 9.56143C26.4096 4.16444 21.8271 0.144445 16.2772 0.00358125L16.0057 0L15.7312 0.00358125C6.91108 0.152801 0 7.12795 0 15.8824C0 24.7085 7.17962 31.8889 16.0045 31.8889C16.3089 31.8889 16.611 31.8804 16.911 31.8633C25.3432 31.3917 31.9702 24.3963 31.9989 15.9373C32.0096 15.4759 31.9762 13.1027 30.279 11.3377C29.7491 10.7838 28.805 10.0556 27.3316 9.73095ZM28.5651 15.9093C28.5526 22.5567 23.3506 28.0594 16.7212 28.4306C16.4825 28.4438 16.2468 28.4503 16.0051 28.4503C9.07553 28.4503 3.43853 22.8122 3.43853 15.8824C3.43853 9.02364 8.8607 3.5586 15.7819 3.44102H16.0051H16.205C19.7492 3.53115 22.7962 5.94254 23.6246 9.30597L23.6842 9.55785H15.878C15.0101 9.54811 14.1491 9.71383 13.3468 10.0451C12.5445 10.3763 11.8173 10.8662 11.2089 11.4854C10.6005 12.1046 10.1234 12.8404 9.80629 13.6485C9.48916 14.4566 9.3385 15.3205 9.36336 16.1883C9.38821 17.0561 9.58807 17.91 9.95093 18.6986C10.3138 19.4873 10.8322 20.1945 11.475 20.7779C12.1179 21.3612 12.8719 21.8087 13.6918 22.0935C14.5118 22.3782 15.3808 22.4944 16.2468 22.435C18.7899 22.3807 21.24 21.4686 23.1996 19.8465C25.1593 18.2244 26.5134 15.9876 27.0422 13.4991L27.1019 13.2269L27.3436 13.3642C27.5074 13.4571 27.6576 13.5722 27.7899 13.7062C28.4177 14.3448 28.5729 15.3882 28.5657 15.8508L28.5651 15.9093ZM23.6365 12.9953L23.5661 13.2525C23.1135 14.8812 22.1472 16.3202 20.8109 17.3551C19.4746 18.3901 17.8399 18.9657 16.1501 18.9963L16.0582 19.0005C15.9986 19.0047 15.9389 19.0065 15.8756 19.0065C15.7547 19.0064 15.6339 18.9986 15.514 18.9832C14.7551 18.8894 14.0605 18.5098 13.5717 17.9216C13.0829 17.3334 12.8367 16.581 12.8833 15.8176C12.9299 15.0542 13.2657 14.3373 13.8223 13.8129C14.379 13.2885 15.1145 12.9961 15.8792 12.9953H23.6365Z" fill="#333333"/>
</g>
<defs>
<clipPath id="clip0_362_9027">
<rect width="32" height="32" fill="white"/>
</clipPath>
</defs>
</svg>
