<svg width="256" height="256" viewBox="0 0 256 256" fill="none" xmlns="http://www.w3.org/2000/svg">
<rect width="256" height="256" fill="#FCFAF4"/>
<path d="M177.576 100.416L176.975 100.286L176.887 99.6771C173.542 76.1523 153.494 58.6296 129.213 58.0156L128.025 58L126.824 58.0156C88.236 58.666 58 89.0699 58 127.229C58 165.701 89.4109 197 128.02 197C129.351 197 130.673 196.963 131.986 196.888C168.877 194.833 197.87 164.34 197.995 127.469C198.042 125.458 197.896 115.113 190.471 107.42C188.152 105.005 184.022 101.831 177.576 100.416ZM182.972 127.347C182.918 156.322 160.159 180.307 131.155 181.926C130.111 181.983 129.08 182.011 128.022 182.011C97.7055 182.011 73.0436 157.436 73.0436 127.229C73.0436 97.3329 96.7656 73.5115 127.046 72.999H128.022H128.897C144.403 73.3918 157.734 83.9028 161.357 98.5636L161.618 99.6615H127.466C123.669 99.6191 119.902 100.341 116.392 101.785C112.882 103.229 109.701 105.364 107.039 108.063C104.377 110.763 102.29 113.97 100.903 117.492C99.5151 121.015 98.856 124.78 98.9647 128.563C99.0734 132.346 99.9478 136.067 101.535 139.505C103.123 142.943 105.391 146.025 108.203 148.568C111.016 151.111 114.314 153.062 117.902 154.303C121.489 155.544 125.291 156.05 129.08 155.791C140.206 155.555 150.925 151.579 159.498 144.509C168.072 137.438 173.996 127.688 176.31 116.841L176.571 115.654L177.628 116.253C178.345 116.658 179.002 117.159 179.581 117.744C182.328 120.527 183.006 125.075 182.975 127.092L182.972 127.347ZM161.41 114.645L161.102 115.766C159.122 122.865 154.894 129.138 149.048 133.649C143.202 138.16 136.05 140.669 128.657 140.803L128.255 140.821C127.994 140.839 127.733 140.847 127.456 140.847C126.927 140.847 126.398 140.813 125.874 140.745C122.554 140.337 119.515 138.682 117.376 136.118C115.238 133.554 114.161 130.274 114.364 126.947C114.568 123.619 116.037 120.494 118.473 118.209C120.908 115.923 124.126 114.648 127.471 114.645H161.41Z" fill="#333333"/>
</svg>
